<svg width="70" height="47" viewBox="0 0 70 47" fill="none" xmlns="http://www.w3.org/2000/svg">
<path d="M43.5409 28.3021L43.5152 45.9729H26.7888L26.763 28.3021L26.7584 25.1405L24.9441 27.7297L19.7188 35.1864L19.7121 35.1959L19.7057 35.2055C19.1896 35.9796 18.2611 36.3114 17.381 36.3114H3.69204C2.12734 36.3114 1.29858 35.1697 1.28341 33.9111C1.27583 33.2825 1.48247 32.6905 1.86796 32.2664C2.23832 31.859 2.83763 31.535 3.77371 31.535H15.6391H16.1687L16.4663 31.0969L23.2597 21.0968C24.2019 19.814 25.1695 18.9192 26.2318 18.3394C27.2918 17.7609 28.5036 17.4649 29.9811 17.4649H40.1323C41.6237 17.4649 42.8355 17.7393 43.8893 18.3027C44.9447 18.867 45.9086 19.7569 46.849 21.0898L53.6754 31.0984L53.9732 31.535H54.5016H66.4489C67.3932 31.535 67.9939 31.86 68.3638 32.2667C68.7491 32.6902 68.9557 33.2823 68.9494 33.9131C68.9366 35.1876 68.107 36.3114 66.6122 36.3114H52.9232C52.0283 36.3114 51.1147 35.9983 50.6042 35.2146L50.595 35.2003L50.5852 35.1864L45.3599 27.7297L43.5455 25.1405L43.5409 28.3021ZM41.6906 7.62006C41.6906 11.2859 38.7367 14.2401 35.0706 14.2401C31.434 14.2401 28.4758 11.3149 28.4506 7.61701C28.4522 3.95259 31.4056 1.00001 35.0706 1.00001C38.7613 1.00001 41.6906 3.95193 41.6906 7.62006Z" stroke="#FFD700" stroke-width="2"/>
<path d="M66.3479 8.84981H69.3001V26.5224H64.6131V23.2294V22.5294H63.9131H61.3159H60.6159V23.2294V26.5224H55.9289V8.84981H58.8811H59.5812V8.1498V7.47007H65.6479V8.1498V8.84981H66.3479ZM60.6159 21.0074H60.7987H61.3159H63.9131H64.4306H64.6131H65.1306H67.5654H68.2654V20.3074V17.8727V17.3715H68.2657L68.2657 16.6715L68.2654 14.2367L68.2653 13.7193H68.2654V13.0193V10.5845V9.88454H67.5654H65.1306H64.6131H64.4306H63.9131H62.6309H62.6148H61.3326H60.7987H60.6325H60.0987H57.6639H56.9639V10.5845V13.0193V13.5368V13.7193V14.2368V16.6715V17.1727V17.3715V17.8727V20.3074V21.0074H57.6639H60.0987H60.6159ZM64.4306 17.1727H63.9134V16.6715H64.4306V17.1727Z" stroke="#FFD700" stroke-width="1.4"/>
<path d="M16.5688 18.6615L16.5424 18.6307L16.5127 18.6032L15.3568 17.534L14.1815 16.4468V18.0479V26.5224H11.4454V20.756V20.056H10.7454H7.18422H6.48421V20.756V26.5224H3.69086V17.9754V16.4011L2.52195 17.4557L1.19277 18.6548L1.17942 18.6669L1.1667 18.6796C1.12954 18.7168 1.06418 18.749 0.982507 18.749L0.982144 18.749C0.827788 18.7491 0.700005 18.6226 0.700005 18.4668C0.700005 18.3749 0.748723 18.2873 0.798404 18.2476L0.813415 18.2356L0.827744 18.2228L8.96804 10.943L11.0871 12.8727L12.2584 13.9393V12.3551V11.0612H13.069V14.3779V14.6862L13.2964 14.8943L17.0076 18.2901C17.0333 18.3246 17.0568 18.3796 17.0568 18.4668C17.0568 18.6215 16.93 18.7493 16.7743 18.7493C16.6872 18.7493 16.6075 18.7066 16.5688 18.6615Z" stroke="#FFD700" stroke-width="1.4"/>
</svg>
