<svg width="50" height="50" viewBox="0 0 50 50" fill="none" xmlns="http://www.w3.org/2000/svg">
<path d="M22.4993 16.2495C22.0385 16.2495 21.666 16.6228 21.666 17.0828V27.4991C21.666 27.9591 22.0385 28.3324 22.4993 28.3324H47.4986C47.9594 28.3324 48.3318 27.9591 48.3318 27.4991V17.0828C48.3318 16.6228 47.9594 16.2495 47.4986 16.2495C47.0377 16.2495 46.6653 16.6228 46.6653 17.0828V26.6658H34.9989V15.8328C34.9989 15.3728 34.6265 14.9995 34.1656 14.9995H27.4991C27.0383 14.9995 26.6659 15.3728 26.6659 15.8328V26.6658H23.3327V17.0828C23.3326 16.6228 22.9601 16.2495 22.4993 16.2495ZM28.3324 16.6661H33.3323V20.8326H32.499C32.0382 20.8326 31.6657 21.206 31.6657 21.6659C31.6657 22.1259 32.0382 22.4992 32.499 22.4992H33.3323V26.6658H28.3324V16.6661Z" fill="#FFD700"/>
<path d="M20.5136 15.7695C20.6169 15.8119 20.7252 15.8328 20.8327 15.8328C21.0494 15.8328 21.2627 15.7479 21.4218 15.5887L35.0015 2.0099L48.5761 15.5887C48.8153 15.8279 49.1736 15.8995 49.4844 15.7696C49.7952 15.6404 49.9985 15.3363 49.9985 14.9996V2.49993C49.9985 2.03998 49.6261 1.66665 49.1653 1.66665H40.8322C40.3714 1.66665 39.9989 2.03998 39.9989 2.49993C39.9989 2.95987 40.3714 3.3332 40.8322 3.3332H48.332V12.9871L35.5931 0.244133C35.2806 -0.0683574 34.7223 -0.0683574 34.4098 0.244133L21.6661 12.9879V3.3332H25.8326C26.2935 3.3332 26.6659 2.95987 26.6659 2.49993V1.66665H28.3326V2.49993C28.3326 2.95987 28.705 3.3332 29.1658 3.3332C29.6267 3.3332 29.9991 2.95987 29.9991 2.49993V0.833276C29.9991 0.373329 29.6267 0 29.1658 0H25.8326C25.3718 0 24.9994 0.373329 24.9994 0.833276V1.66655H20.8328C20.372 1.66655 19.9995 2.03988 19.9995 2.49983V14.9995C19.9994 15.3362 20.2019 15.6404 20.5136 15.7695Z" fill="#FFD700"/>
<path d="M42.4987 23.3326C42.9595 23.3326 43.3319 22.9592 43.3319 22.4993V15.8328C43.3319 15.3728 42.9595 14.9995 42.4987 14.9995H37.4988C37.038 14.9995 36.6655 15.3728 36.6655 15.8328V22.4993C36.6655 22.9592 37.038 23.3326 37.4988 23.3326H42.4987ZM38.3321 16.6661H41.6653V21.6659H38.3321V16.6661Z" fill="#FFD700"/>
<path d="M4.16643 44.582C4.16643 43.8929 3.60561 43.332 2.91647 43.332C2.22733 43.332 1.6665 43.8929 1.6665 44.582C1.6665 45.2711 2.22733 45.832 2.91647 45.832C3.60561 45.832 4.16643 45.2711 4.16643 44.582Z" fill="#FFD700"/>
<path d="M49.5517 34.999C48.6325 33.4065 46.5867 32.8615 45.0509 33.7515L35.4595 38.4198C33.9687 39.1655 32.4638 39.1655 29.1655 39.1655C25.9415 39.1655 21.0191 38.3514 20.9691 38.3439C20.5158 38.2689 20.0858 38.5747 20.0108 39.028C19.935 39.4822 20.2417 39.9122 20.6958 39.9872C20.9024 40.0222 25.8023 40.8322 29.1655 40.8322C32.6254 40.8322 34.3621 40.8322 36.197 39.9147L45.8317 35.2224C46.2166 34.9999 46.6649 34.9408 47.0967 35.0557C47.5258 35.1715 47.8858 35.4474 48.1075 35.8323C48.3308 36.2182 48.39 36.6673 48.2749 37.0973C48.1599 37.5274 47.8841 37.8865 47.475 38.1232L36.2078 45.1355C36.1845 45.1513 33.7804 46.6654 28.3323 46.6654C23.6083 46.6654 16.3102 42.6439 16.2051 42.5863C16.1292 42.5497 14.3226 41.6656 10.8328 41.6656C10.372 41.6656 9.99951 42.0389 9.99951 42.4988C9.99951 42.9588 10.372 43.3321 10.8328 43.3321C13.8636 43.3321 15.4251 44.0613 15.4285 44.0613V44.0604C15.7435 44.2354 23.1757 48.332 28.3323 48.332C34.3488 48.332 37.017 46.5987 37.1054 46.5395L48.3317 39.5523C49.1025 39.1072 49.6541 38.3881 49.8842 37.529C50.1158 36.6681 49.9967 35.7697 49.5517 34.999Z" fill="#FFD700"/>
<path d="M10.8328 31.6657H17.4993C18.4717 31.6657 20.1242 32.9057 21.5825 33.9989C23.4107 35.3705 25.1382 36.6655 26.6656 36.6655H31.6655C32.9313 36.6655 33.5596 37.2396 33.5763 37.2547C33.7388 37.4172 33.9521 37.4988 34.1654 37.4988C34.3788 37.4988 34.592 37.4172 34.7545 37.2547C35.0803 36.9288 35.0803 36.4022 34.7545 36.0764C34.6446 35.9664 33.6213 34.9989 31.6655 34.9989H26.6656C25.6932 34.9989 24.0407 33.7589 22.5824 32.6656C20.7542 31.294 19.0267 29.999 17.4993 29.999H10.8328C10.372 29.999 9.99951 30.3724 9.99951 30.8323C9.99951 31.2922 10.372 31.6657 10.8328 31.6657Z" fill="#FFD700"/>
<path d="M5.83313 26.666H0.833276C0.37245 26.666 0 27.0393 0 27.4993C0 27.9592 0.37245 28.3326 0.833276 28.3326H5.83313C6.29308 28.3326 6.66641 28.7067 6.66641 29.1658V47.4986C6.66641 47.9578 6.29308 48.3319 5.83313 48.3319H0.833276C0.37245 48.3319 0 48.7052 0 49.1652C0 49.6251 0.37245 49.9984 0.833276 49.9984H5.83313C7.21141 49.9984 8.33306 48.8768 8.33306 47.4985V29.1659C8.33306 27.7877 7.21141 26.666 5.83313 26.666Z" fill="#FFD700"/>
</svg>
