<svg width="49" height="49" viewBox="0 0 49 49" fill="none" xmlns="http://www.w3.org/2000/svg">
<path d="M45.292 24.166L26.8022 5.68565L25.5628 4.4463C25.2804 4.16577 24.8985 4.00833 24.5005 4.00833C24.1025 4.00833 23.7206 4.16577 23.4382 4.4463L3.70893 24.166C3.41958 24.4542 3.1909 24.7975 3.03639 25.1755C2.88188 25.5536 2.80467 25.9588 2.80932 26.3672C2.82846 28.0515 4.23052 29.3962 5.9149 29.3962H7.94859V44.9815H41.0524V29.3962H43.1292C43.9474 29.3962 44.7178 29.0756 45.2968 28.4966C45.5819 28.2124 45.8078 27.8744 45.9614 27.5024C46.115 27.1303 46.1933 26.7314 46.1917 26.3289C46.1917 25.5154 45.8711 24.745 45.292 24.166ZM27.1802 41.5361H21.8208V31.7744H27.1802V41.5361ZM37.6071 25.9508V41.5361H30.2427V30.626C30.2427 29.5684 29.3861 28.7119 28.3286 28.7119H20.6724C19.6148 28.7119 18.7583 29.5684 18.7583 30.626V41.5361H11.3939V25.9508H6.80015L24.5053 8.26007L25.6107 9.36545L42.2056 25.9508H37.6071Z" fill="#FFD700"/>
</svg>
